<svg width="119" height="23" viewBox="0 0 119 23" fill="none" xmlns="http://www.w3.org/2000/svg">
<path d="M8.7998 14.1924H5.29883V22H0.904297V0.671875H8.8291C11.3486 0.671875 13.292 1.2334 14.6592 2.35645C16.0264 3.47949 16.71 5.06641 16.71 7.11719C16.71 8.57227 16.3926 9.78809 15.7578 10.7646C15.1328 11.7314 14.1807 12.5029 12.9014 13.0791L17.5156 21.7949V22H12.7988L8.7998 14.1924ZM5.29883 10.6328H8.84375C9.94727 10.6328 10.8018 10.3545 11.4072 9.79785C12.0127 9.23145 12.3154 8.45508 12.3154 7.46875C12.3154 6.46289 12.0273 5.67187 11.4512 5.0957C10.8848 4.51953 10.0107 4.23145 8.8291 4.23145H5.29883V10.6328ZM27.0811 22.293C24.7568 22.293 22.8623 21.5801 21.3975 20.1543C19.9424 18.7285 19.2148 16.8291 19.2148 14.4561V14.0459C19.2148 12.4541 19.5225 11.0332 20.1377 9.7832C20.7529 8.52344 21.6221 7.55664 22.7451 6.88281C23.8779 6.19922 25.167 5.85742 26.6123 5.85742C28.7803 5.85742 30.4844 6.54102 31.7246 7.9082C32.9746 9.27539 33.5996 11.2139 33.5996 13.7236V15.4521H23.5068C23.6436 16.4873 24.0537 17.3174 24.7373 17.9424C25.4307 18.5674 26.3047 18.8799 27.3594 18.8799C28.9902 18.8799 30.2646 18.2891 31.1826 17.1074L33.2627 19.4365C32.6279 20.335 31.7686 21.0381 30.6846 21.5459C29.6006 22.0439 28.3994 22.293 27.0811 22.293ZM26.5977 9.28516C25.7578 9.28516 25.0742 9.56836 24.5469 10.1348C24.0293 10.7012 23.6973 11.5117 23.5508 12.5664H29.4395V12.2295C29.4199 11.292 29.166 10.5693 28.6777 10.0615C28.1895 9.54395 27.4961 9.28516 26.5977 9.28516ZM45.2012 22C45.0059 21.6191 44.8643 21.1455 44.7764 20.5791C43.751 21.7217 42.418 22.293 40.7773 22.293C39.2246 22.293 37.9355 21.8438 36.9102 20.9453C35.8945 20.0469 35.3867 18.9141 35.3867 17.5469C35.3867 15.8672 36.0068 14.5781 37.2471 13.6797C38.4971 12.7812 40.2988 12.3271 42.6523 12.3174H44.6006V11.4092C44.6006 10.6768 44.4102 10.0908 44.0293 9.65137C43.6582 9.21191 43.0674 8.99219 42.2568 8.99219C41.5439 8.99219 40.9824 9.16309 40.5723 9.50488C40.1719 9.84668 39.9717 10.3154 39.9717 10.9111H35.7383C35.7383 9.99316 36.0215 9.14355 36.5879 8.3623C37.1543 7.58105 37.9551 6.9707 38.9902 6.53125C40.0254 6.08203 41.1875 5.85742 42.4766 5.85742C44.4297 5.85742 45.9775 6.35059 47.1201 7.33691C48.2725 8.31348 48.8486 9.69043 48.8486 11.4678V18.3379C48.8584 19.8418 49.0684 20.9795 49.4785 21.751V22H45.2012ZM41.7002 19.0557C42.3252 19.0557 42.9014 18.9189 43.4287 18.6455C43.9561 18.3623 44.3467 17.9863 44.6006 17.5176V14.793H43.0186C40.8994 14.793 39.7715 15.5254 39.6348 16.9902L39.6201 17.2393C39.6201 17.7666 39.8057 18.2012 40.1768 18.543C40.5479 18.8848 41.0557 19.0557 41.7002 19.0557ZM58.6924 18.8799C59.4736 18.8799 60.1084 18.665 60.5967 18.2354C61.085 17.8057 61.3389 17.2344 61.3584 16.5215H65.3281C65.3184 17.5957 65.0254 18.582 64.4492 19.4805C63.873 20.3691 63.082 21.0625 62.0762 21.5605C61.0801 22.0488 59.9766 22.293 58.7656 22.293C56.5 22.293 54.7129 21.5752 53.4043 20.1396C52.0957 18.6943 51.4414 16.7021 51.4414 14.1631V13.8848C51.4414 11.4434 52.0908 9.49512 53.3896 8.04004C54.6885 6.58496 56.4707 5.85742 58.7363 5.85742C60.7188 5.85742 62.3057 6.42383 63.4971 7.55664C64.6982 8.67969 65.3086 10.1787 65.3281 12.0537H61.3584C61.3389 11.2334 61.085 10.5693 60.5967 10.0615C60.1084 9.54395 59.4639 9.28516 58.6631 9.28516C57.6768 9.28516 56.9297 9.64648 56.4219 10.3691C55.9238 11.082 55.6748 12.2441 55.6748 13.8555V14.2949C55.6748 15.9258 55.9238 17.0977 56.4219 17.8105C56.9199 18.5234 57.6768 18.8799 58.6924 18.8799ZM72.8135 2.25391V6.15039H75.5234V9.25586H72.8135V17.166C72.8135 17.752 72.9258 18.1719 73.1504 18.4258C73.375 18.6797 73.8047 18.8066 74.4395 18.8066C74.9082 18.8066 75.3232 18.7725 75.6846 18.7041V21.9121C74.8545 22.166 74 22.293 73.1211 22.293C70.1523 22.293 68.6387 20.7939 68.5801 17.7959V9.25586H66.2656V6.15039H68.5801V2.25391H72.8135ZM86.7881 10.1201C86.2119 10.042 85.7041 10.0029 85.2646 10.0029C83.6631 10.0029 82.6133 10.5449 82.1152 11.6289V22H77.8818V6.15039H81.8809L81.998 8.04004C82.8477 6.58496 84.0244 5.85742 85.5283 5.85742C85.9971 5.85742 86.4365 5.9209 86.8467 6.04785L86.7881 10.1201ZM87.6523 13.9287C87.6523 12.3564 87.9551 10.9551 88.5605 9.72461C89.166 8.49414 90.0352 7.54199 91.168 6.86816C92.3105 6.19434 93.6338 5.85742 95.1377 5.85742C97.2764 5.85742 99.0195 6.51172 100.367 7.82031C101.725 9.12891 102.481 10.9062 102.638 13.1523L102.667 14.2363C102.667 16.668 101.988 18.6211 100.631 20.0957C99.2734 21.5605 97.4521 22.293 95.167 22.293C92.8818 22.293 91.0557 21.5605 89.6885 20.0957C88.3311 18.6309 87.6523 16.6387 87.6523 14.1191V13.9287ZM91.8857 14.2363C91.8857 15.7402 92.1689 16.8926 92.7354 17.6934C93.3018 18.4844 94.1123 18.8799 95.167 18.8799C96.1924 18.8799 96.9932 18.4893 97.5693 17.708C98.1455 16.917 98.4336 15.6572 98.4336 13.9287C98.4336 12.4541 98.1455 11.3115 97.5693 10.501C96.9932 9.69043 96.1826 9.28516 95.1377 9.28516C94.1025 9.28516 93.3018 9.69043 92.7354 10.501C92.1689 11.3018 91.8857 12.5469 91.8857 14.2363ZM109.171 6.15039L109.303 7.98145C110.436 6.56543 111.954 5.85742 113.858 5.85742C115.538 5.85742 116.788 6.35059 117.608 7.33691C118.429 8.32324 118.849 9.79785 118.868 11.7607V22H114.635V11.8633C114.635 10.9648 114.439 10.3154 114.049 9.91504C113.658 9.50488 113.009 9.2998 112.101 9.2998C110.909 9.2998 110.016 9.80762 109.42 10.8232V22H105.187V6.15039H109.171Z" fill="#E1E1E6"/>
</svg>
